<?xml version="1.0" encoding="UTF-8" standalone="no"?>
<svg
   xmlns:dc="http://purl.org/dc/elements/1.1/"
   xmlns:cc="http://creativecommons.org/ns#"
   xmlns:rdf="http://www.w3.org/1999/02/22-rdf-syntax-ns#"
   xmlns:svg="http://www.w3.org/2000/svg"
   xmlns="http://www.w3.org/2000/svg"
   xmlns:sodipodi="http://sodipodi.sourceforge.net/DTD/sodipodi-0.dtd"
   xmlns:inkscape="http://www.inkscape.org/namespaces/inkscape"
   inkscape:version="1.0 (4035a4fb49, 2020-05-01)"
   height="42"
   width="42"
   sodipodi:docname="connector.svg"
   id="svg193"
   xml:space="preserve"
   enable-background="new 0 0 1000 1000"
   viewBox="0 0 42 42"
   y="0px"
   x="0px"
   version="1.1"><defs
   id="defs197" /><sodipodi:namedview
   inkscape:current-layer="svg193"
   inkscape:window-maximized="1"
   inkscape:window-y="0"
   inkscape:window-x="1920"
   inkscape:cy="120.29974"
   inkscape:cx="147.51022"
   inkscape:zoom="3.36"
   showgrid="false"
   id="namedview195"
   inkscape:window-height="1055"
   inkscape:window-width="1920"
   inkscape:pageshadow="2"
   inkscape:pageopacity="0"
   guidetolerance="10"
   gridtolerance="10"
   objecttolerance="10"
   borderopacity="1"
   bordercolor="#666666"
   pagecolor="#ffffff" />
<metadata
   id="metadata179"> Svg Vector Icons : http://www.onlinewebfonts.com/icon <rdf:RDF><cc:Work
     rdf:about=""><dc:format>image/svg+xml</dc:format><dc:type
       rdf:resource="http://purl.org/dc/dcmitype/StillImage" /><dc:title></dc:title></cc:Work></rdf:RDF></metadata>
<g
   transform="matrix(0,-0.04081356,0.04081401,0,0.59299662,41.43928)"
   id="g191"><path
     id="path181"
     d="m 724.1,477.8 76.1,80.3 c 67.3,71 35.3,210.7 -6.7,250.6 -41.9,39.7 -183.2,64.4 -250.6,-6.7 l -76.1,-80.2 z" /><path
     id="path183"
     d="m 521.7,595.8 c 13.1,13.8 12.6,35.7 -1.3,48.9 v 0 c -13.8,13.2 -35.7,12.5 -48.9,-1.3 l -91.8,-96.8 c -13.2,-13.8 -12.6,-35.7 1.3,-48.9 v 0 c 13.9,-13.1 35.7,-12.5 48.9,1.3 z" /><path
     id="path185"
     d="m 652.8,471.6 c 13.2,13.9 12.6,35.7 -1.3,48.9 v 0 c -13.9,13.2 -35.7,12.5 -48.9,-1.3 l -91.8,-96.8 c -13.2,-13.8 -12.6,-35.7 1.3,-48.9 v 0 C 526,360.4 547.8,361 561,374.8 Z" /><path
     id="path187"
     d="m 247,167.7 c -7.8,-5.9 -17,-12.9 -27.5,-24 L 105,22.9 C 89.3,6.3 63.1,5.6 46.6,21.3 30,37 29.3,63.2 45,79.7 l 114.5,120.8 c 11.7,12.4 16.9,21.3 22.7,29.2 -25.9,59 -33.9,155.9 18.6,211.3 L 276.9,521.2 534.2,277.3 458.1,197 C 405.3,141.5 307.2,144.7 247,167.7 Z" /><path
     id="path189"
     d="m 817.9,770.7 c 5.4,8.1 12,17.7 22.5,28.8 L 955,920.3 c 15.7,16.6 15,42.7 -1.6,58.4 -16.6,15.7 -42.7,15 -58.4,-1.6 L 780.5,856.3 c -11.7,-12.4 -20.3,-18.1 -28,-24.2 -60.3,22.7 -157.5,25.5 -210,-29.9 l -76,-80.2 257.3,-243.9 76.1,80.2 c 52.7,55.7 44.3,153.5 18,212.4 z" /></g>
</svg>
