<?xml version="1.0" encoding="UTF-8" standalone="no"?>
<svg
   xmlns:dc="http://purl.org/dc/elements/1.1/"
   xmlns:cc="http://creativecommons.org/ns#"
   xmlns:rdf="http://www.w3.org/1999/02/22-rdf-syntax-ns#"
   xmlns:svg="http://www.w3.org/2000/svg"
   xmlns="http://www.w3.org/2000/svg"
   xmlns:sodipodi="http://sodipodi.sourceforge.net/DTD/sodipodi-0.dtd"
   xmlns:inkscape="http://www.inkscape.org/namespaces/inkscape"
   inkscape:version="1.0 (4035a4fb49, 2020-05-01)"
   height="42"
   width="42"
   sodipodi:docname="presentation.svg"
   id="svg8"
   xml:space="preserve"
   enable-background="new 0 0 1000 1000"
   viewBox="0 0 42 42"
   y="0px"
   x="0px"
   version="1.1"><defs
   id="defs12" /><sodipodi:namedview
   inkscape:current-layer="svg8"
   inkscape:window-maximized="0"
   inkscape:window-y="24"
   inkscape:window-x="1961"
   inkscape:cy="29.306362"
   inkscape:cx="33.973926"
   inkscape:zoom="9.5035151"
   showgrid="false"
   id="namedview10"
   inkscape:window-height="912"
   inkscape:window-width="1649"
   inkscape:pageshadow="2"
   inkscape:pageopacity="0"
   guidetolerance="10"
   gridtolerance="10"
   objecttolerance="10"
   borderopacity="1"
   bordercolor="#666666"
   pagecolor="#ffffff" />
<metadata
   id="metadata2"> Svg Vector Icons : http://www.onlinewebfonts.com/icon <rdf:RDF><cc:Work
     rdf:about=""><dc:format>image/svg+xml</dc:format><dc:type
       rdf:resource="http://purl.org/dc/dcmitype/StillImage" /><dc:title></dc:title></cc:Work></rdf:RDF></metadata>
<g
   transform="matrix(0.04081633,0,0,0.04081633,0.59591833,0.36734663)"
   id="g6"><path
     id="path4"
     d="M 950.5,742.8 C 837,742.3 723.4,742.5 609.9,742.5 h -18 c 1.6,23.1 3.7,45.2 4.6,67.4 1.2,28.6 14.6,48.6 39.5,61.9 10.1,5.4 19.8,11.6 29.5,17.7 2.9,1.8 6,3.9 8,6.6 5.5,7.6 1.9,14.6 -7.6,14.8 -14.7,0.3 -29.3,0.1 -44,0.1 -94.4,0 -188.8,0 -283.2,-0.1 -5.5,0 -12.5,1.7 -14.4,-5.8 -1.8,-7.3 3.2,-11.8 9,-15.2 12.6,-7.5 25.2,-15 37.7,-22.6 19.3,-11.8 29.9,-29 31.6,-51.6 1.8,-23.8 3.6,-47.7 5.5,-73.1 h -12.4 c -116.4,0 -232.8,0 -349.2,0 -25.4,0 -36.6,-11.2 -36.6,-36.8 0,-180.2 0,-401.2 0,-581.4 0,-23 11.8,-35.1 34.5,-35.1 302,0 604,0.1 906,-0.3 18.8,0 32,5.8 39.5,23.2 v 607.4 c -7.4,17.3 -20.6,23.3 -39.4,23.2 z M 943.4,156.3 H 56.5 V 670.6 H 943.4 Z M 117.2,520.2 c 0,-11.4 0.1,-22.9 0,-34.4 -0.1,-8.6 3.7,-13.2 12.5,-13.2 13,0 26.1,0.1 39.1,0 8.8,-0.1 12.8,4.6 12.9,13 0.1,23.5 0.1,47.1 0,70.6 0,8.5 -4.2,12.9 -13,12.8 -12.7,-0.1 -25.5,0.1 -38.2,-0.1 -9.5,-0.1 -13.1,-3.9 -13.2,-13.5 -0.2,-11.7 -0.1,-23.5 -0.1,-35.2 z m 185.7,-16.3 c 0,-16.6 -0.1,-33.1 0,-49.7 0.1,-10.2 3.5,-13.6 13.8,-13.7 12.4,-0.1 24.8,-0.1 37.3,0 9.6,0.1 13.4,3.6 13.4,13.3 0.2,34.1 0.1,68.1 0,102.2 0,8.4 -4.2,13 -13,12.9 -12.7,-0.1 -25.5,0.1 -38.2,-0.1 -9.5,-0.1 -13.2,-3.9 -13.3,-13.4 -0.1,-17.1 0,-34.3 0,-51.5 z m -28.6,-15.4 c 0,22 0.1,44 0,65.9 0,11.1 -3.2,14.3 -14.1,14.5 -12.1,0.1 -24.2,0.1 -36.3,0 -9.9,-0.1 -13.6,-3.3 -13.7,-12.9 -0.2,-44.9 -0.2,-89.8 0,-134.8 0,-9.7 3.7,-12.9 13.6,-13 12.4,-0.1 24.9,-0.1 37.3,0 9.6,0.1 13.1,3.7 13.1,13.4 0.2,22.3 0.1,44.6 0.1,66.9 z m 573,-175.4 C 807.1,343.2 767.4,373 726.5,403.6 V 248.5 c 36.6,-3.6 99.4,29.7 120.8,64.6 z M 395.9,473.3 c 0,-27.1 0,-54.2 0,-81.3 0,-13.2 3.1,-16.1 16.4,-16.2 11.2,0 22.3,-0.1 33.5,0 10.3,0.1 14.1,3.6 14.1,13.5 0.1,55.5 0.1,110.9 0,166.4 0,9.5 -3.8,13 -13.5,13.2 -12.4,0.2 -24.9,0.1 -37.3,0 -9.5,-0.1 -13.1,-3.6 -13.2,-13.4 0,-27.4 0.1,-54.8 0,-82.2 z M 334.4,371.8 c 29.9,-34 59.5,-67.6 90.8,-103.1 -13.8,0 -25.1,-0.2 -36.4,0.1 -7.6,0.2 -13.5,-1.9 -14.2,-10.5 -0.6,-6.9 5,-10.9 14.7,-10.9 18.8,0 37.6,-0.1 56.4,0 11,0.1 14.3,3.2 14.3,14.2 0.1,19.4 -0.1,38.9 0.1,58.3 0.1,7.5 -2.9,13 -10.6,13 -7.7,0 -10.9,-5.3 -10.8,-12.9 0.1,-10.4 0,-20.8 0,-33.8 -4.6,5 -7.8,8.3 -10.8,11.8 -27,30.6 -53.9,61.3 -80.9,91.8 -8.5,9.6 -12.2,9.9 -22.4,1.8 -27.2,-21.6 -54.3,-43.3 -82,-65.5 -2.6,2.3 -5.2,4.4 -7.7,6.8 -31.1,29.3 -62.2,58.5 -93.3,87.8 -2.3,2.2 -4.5,4.5 -7.1,6.4 -5.1,3.7 -11.2,3.8 -14.2,-1.5 -2,-3.5 -1,-9.2 -0.1,-13.7 0.5,-2.3 3.8,-4.1 5.9,-6.1 34.8,-32.8 69.6,-65.6 104.4,-98.3 9.3,-8.7 12.1,-8.8 22,-0.9 24.4,19.5 48.8,39 73.2,58.5 2.8,2.2 5.6,4.3 8.7,6.7 z M 814.3,549 c -26.7,-41.4 -53.4,-82.8 -80.5,-124.7 42.1,-31.5 83.5,-62.5 125,-93.6 C 901,393.8 888,497.5 814.3,549 Z M 704.8,260.3 c 0,31 0,61.2 0,91.5 0,19.1 -0.3,38.3 0.2,57.4 0.1,4.8 1.5,10.1 4.1,14.1 23.7,37.4 47.9,74.5 71.8,111.7 2.9,4.5 5.8,9 8.7,13.5 C 747,575.6 677.8,578.7 624.2,539.9 569.7,500.5 546.6,431.2 566.8,367.7 586.2,306.4 644,261.1 704.8,260.3 Z" /></g>
</svg>
