<?xml version="1.0" encoding="UTF-8" standalone="no"?>
<svg
   xmlns:dc="http://purl.org/dc/elements/1.1/"
   xmlns:cc="http://creativecommons.org/ns#"
   xmlns:rdf="http://www.w3.org/1999/02/22-rdf-syntax-ns#"
   xmlns:svg="http://www.w3.org/2000/svg"
   xmlns="http://www.w3.org/2000/svg"
   xmlns:sodipodi="http://sodipodi.sourceforge.net/DTD/sodipodi-0.dtd"
   xmlns:inkscape="http://www.inkscape.org/namespaces/inkscape"
   inkscape:version="1.0 (4035a4fb49, 2020-05-01)"
   height="42"
   width="42"
   sodipodi:docname="theme.svg"
   id="svg8"
   xml:space="preserve"
   enable-background="new 0 0 1000 1000"
   viewBox="0 0 42 42"
   y="0px"
   x="0px"
   version="1.1"><defs
   id="defs12" /><sodipodi:namedview
   inkscape:current-layer="svg8"
   inkscape:window-maximized="1"
   inkscape:window-y="0"
   inkscape:window-x="1920"
   inkscape:cy="52.832384"
   inkscape:cx="42.622161"
   inkscape:zoom="6.72"
   showgrid="false"
   id="namedview10"
   inkscape:window-height="1055"
   inkscape:window-width="1920"
   inkscape:pageshadow="2"
   inkscape:pageopacity="0"
   guidetolerance="10"
   gridtolerance="10"
   objecttolerance="10"
   borderopacity="1"
   bordercolor="#666666"
   pagecolor="#ffffff" />
<metadata
   id="metadata2"> Svg Vector Icons : http://www.onlinewebfonts.com/icon <rdf:RDF><cc:Work
     rdf:about=""><dc:format>image/svg+xml</dc:format><dc:type
       rdf:resource="http://purl.org/dc/dcmitype/StillImage" /><dc:title></dc:title></cc:Work></rdf:RDF></metadata>
<g
   transform="matrix(0.04081863,0,0,0.04081863,0.59300635,0.63246303)"
   id="g6"><path
     id="path4"
     d="M 957.1,275.7 837.6,154.1 c -34.1,-34.7 -91,-71.6 -129.3,-71.6 -40.6,0 -91.1,42.9 -120,85.3 -0.3,0.4 -28.3,39.1 -88.6,39.1 -60,0 -87.6,-37.7 -88.6,-39.1 C 382.2,125.4 333,82.6 294.8,82.6 258.7,82.6 203.9,118 168.5,153 L 43.3,276.4 c -22.1,21.9 -34,50.7 -33.3,81.3 0.7,30.6 13.7,58.9 36.7,79.8 l 3.9,3.6 c 26.1,23.7 59.3,37.2 91.2,37.2 23.5,0 44,-7.4 59.3,-21.3 1.6,4.8 3.3,13 3.3,25.3 L 168.8,802 c 0,63.7 52.2,115.5 116.2,115.5 h 429.1 c 64.1,0 116.2,-51.8 116.2,-115.5 L 794.6,482.2 c 0,-14.5 2.5,-23.1 4.4,-27.1 0.9,0.6 2,1.4 3.3,2.5 15.7,13.3 36.2,20.3 59.3,20.3 v 0 c 33.1,0 67,-14.3 93,-39.2 22.3,-21.4 34.8,-50.1 35.3,-81 0.5,-30.8 -11.1,-59.9 -32.8,-82 z M 908,402.6 c -15.5,14.8 -35.8,23.7 -54.4,23.7 v 0 c -6.9,0 -16.7,-1.3 -24,-7.4 -12.7,-10.7 -25.9,-16.2 -39.4,-16.2 -25.2,0 -54.6,20.9 -54.6,79.9 l 34.9,312.5 c 0,33.5 -27.5,60.8 -61.2,60.8 H 289.9 c -33.7,0 -61.2,-27.3 -61.2,-60.8 l 34.9,-312.5 c 0,-58.9 -27.2,-79.9 -52.6,-79.9 -13.3,0 -26.2,5.7 -38.5,16.8 -6.5,5.9 -15.8,7.1 -22.5,7.1 -17.9,0 -38,-8.5 -53.8,-22.8 l -3.9,-3.5 C 80.5,389.6 73.8,375.1 73.5,359.7 73.2,344.2 79.3,329.5 90.6,318.3 L 212.9,197.6 c 32.7,-32.3 73.7,-53.6 86.5,-53.6 10.3,0.1 44.8,23.1 70.2,60.4 1.7,2.5 42.7,61.1 130,61.1 87.4,0 128.3,-58.6 130,-61.1 26.7,-39.1 62.8,-60.4 73.9,-60.4 14.5,0 56.3,21.1 88.9,54.3 l 116.9,118.8 c 11.3,11.5 17.4,26.8 17.2,43 -0.3,16.3 -6.8,31.4 -18.5,42.5 z" /></g>
</svg>
