<?xml version="1.0" encoding="UTF-8" standalone="no"?>
<svg
   xmlns:dc="http://purl.org/dc/elements/1.1/"
   xmlns:cc="http://creativecommons.org/ns#"
   xmlns:rdf="http://www.w3.org/1999/02/22-rdf-syntax-ns#"
   xmlns:svg="http://www.w3.org/2000/svg"
   xmlns="http://www.w3.org/2000/svg"
   xmlns:sodipodi="http://sodipodi.sourceforge.net/DTD/sodipodi-0.dtd"
   xmlns:inkscape="http://www.inkscape.org/namespaces/inkscape"
   inkscape:version="1.0 (4035a4fb49, 2020-05-01)"
   height="42"
   width="42"
   sodipodi:docname="home.svg"
   id="svg40"
   xml:space="preserve"
   enable-background="new 0 0 1000 1000"
   viewBox="0 0 42 42"
   y="0px"
   x="0px"
   version="1.1"><defs
   id="defs44" /><sodipodi:namedview
   inkscape:current-layer="svg40"
   inkscape:window-maximized="0"
   inkscape:window-y="52"
   inkscape:window-x="2000"
   inkscape:cy="56.677221"
   inkscape:cx="35.300832"
   inkscape:zoom="4.7517576"
   showgrid="false"
   id="namedview42"
   inkscape:window-height="895"
   inkscape:window-width="1308"
   inkscape:pageshadow="2"
   inkscape:pageopacity="0"
   guidetolerance="10"
   gridtolerance="10"
   objecttolerance="10"
   borderopacity="1"
   bordercolor="#666666"
   pagecolor="#ffffff" />
<metadata
   id="metadata2"> Svg Vector Icons : http://www.onlinewebfonts.com/icon <rdf:RDF><cc:Work
     rdf:about=""><dc:format>image/svg+xml</dc:format><dc:type
       rdf:resource="http://purl.org/dc/dcmitype/StillImage" /><dc:title></dc:title></cc:Work></rdf:RDF></metadata>
<g
   transform="matrix(0.04081633,0,0,0.04081633,0.97959166,0.5918367)"
   id="g38"><g
     id="g6"><path
       id="path4"
       d="m 689.7,990 h 213.4 c 26.1,0 47.4,-21.3 47.4,-47.4 V 367.2 c 0,-15 -7.1,-29.2 -19,-37.9 l -64.8,-48.2 c -11.9,-8.7 -19,-22.9 -19,-37.9 V 57.4 C 847.7,31.3 826.4,10 800.3,10 H 737.1 C 711,10 689.7,31.3 689.7,57.4 v 47.4 c 0,19.8 -22.1,30.8 -37.9,19 L 527.7,33.7 c -16.6,-11.9 -39.5,-11.9 -56.1,0 L 68.5,329.3 c -11.9,8.7 -19,22.9 -19,38.7 v 574.6 c 0,26.1 21.3,47.4 47.4,47.4 h 213.4 c 26.1,0 47.4,-21.3 47.4,-47.4 v -324 c 0,-26.1 21.3,-47.4 47.4,-47.4 h 189.7 c 26.1,0 47.4,21.3 47.4,47.4 v 324 c 0.1,26.1 21.4,47.4 47.5,47.4 z" /></g><g
     id="g8" /><g
     id="g10" /><g
     id="g12" /><g
     id="g14" /><g
     id="g16" /><g
     id="g18" /><g
     id="g20" /><g
     id="g22" /><g
     id="g24" /><g
     id="g26" /><g
     id="g28" /><g
     id="g30" /><g
     id="g32" /><g
     id="g34" /><g
     id="g36" /></g>
</svg>
