<?xml version="1.0" encoding="UTF-8" standalone="no"?>
<svg
   xmlns:dc="http://purl.org/dc/elements/1.1/"
   xmlns:cc="http://creativecommons.org/ns#"
   xmlns:rdf="http://www.w3.org/1999/02/22-rdf-syntax-ns#"
   xmlns:svg="http://www.w3.org/2000/svg"
   xmlns="http://www.w3.org/2000/svg"
   xmlns:sodipodi="http://sodipodi.sourceforge.net/DTD/sodipodi-0.dtd"
   xmlns:inkscape="http://www.inkscape.org/namespaces/inkscape"
   inkscape:version="1.0 (4035a4fb49, 2020-05-01)"
   height="42"
   width="42"
   sodipodi:docname="missing.svg"
   id="svg8"
   xml:space="preserve"
   enable-background="new 0 0 1000 1000"
   viewBox="0 0 42 42"
   y="0px"
   x="0px"
   version="1.1"><defs
   id="defs12" /><sodipodi:namedview
   inkscape:current-layer="svg8"
   inkscape:window-maximized="0"
   inkscape:window-y="104"
   inkscape:window-x="2165"
   inkscape:cy="51.673688"
   inkscape:cx="34.421699"
   inkscape:zoom="6.72"
   showgrid="false"
   id="namedview10"
   inkscape:window-height="906"
   inkscape:window-width="1460"
   inkscape:pageshadow="2"
   inkscape:pageopacity="0"
   guidetolerance="10"
   gridtolerance="10"
   objecttolerance="10"
   borderopacity="1"
   bordercolor="#666666"
   pagecolor="#ffffff" />
<metadata
   id="metadata2"> Svg Vector Icons : http://www.onlinewebfonts.com/icon <rdf:RDF><cc:Work
     rdf:about=""><dc:format>image/svg+xml</dc:format><dc:type
       rdf:resource="http://purl.org/dc/dcmitype/StillImage" /><dc:title></dc:title></cc:Work></rdf:RDF></metadata>
<g
   transform="matrix(0.04080116,0,0,0.04080116,0.59196039,0.59912783)"
   id="g6"><path
     id="path4"
     d="M 53.6,130.2 C 124.3,184.1 195.1,238 265.8,292 277.7,278.6 289.7,265.1 301.6,251.7 251.7,178.5 201.8,105.2 151.9,32 119.1,64.7 86.3,97.4 53.6,130.2 Z M 288.1,77.5 c 9.4,51.6 18.8,103.1 28.2,154.7 17,0 38.4,4.9 33.9,-19.6 6.2,-43.7 12.4,-87.4 18.6,-131.1 -26.9,-1.4 -53.8,-2.7 -80.7,-4 z M 93.9,499.7 c -99.5,95.2 -112.4,263.6 -28.5,372.8 78,110.9 238.4,150.6 358.9,88 67.7,-33.9 113.6,-96.2 168.1,-146.8 9.5,-12.2 29.8,-24.4 32.7,-36.6 -33.2,-33.2 -66.4,-66.4 -99.6,-99.6 -48.1,46.8 -93.6,96.4 -143.5,141.2 -68.8,54.2 -181,25 -215.2,-55.5 C 136.6,702.3 159.7,627 211.3,585.6 248.4,548.5 285.4,511.5 322.5,474.4 288.7,440.6 254.8,406.7 221,372.9 178.5,415.2 136.2,457.5 93.9,499.7 Z M 373,220.6 c 33.8,33.8 67.7,67.7 101.5,101.5 48.1,-46.8 93.6,-96.4 143.5,-141.2 68.8,-54.2 181,-24.9 215.2,55.5 30.2,60.9 7.1,136.2 -44.5,177.6 -37.1,37.1 -74.1,74.1 -111.2,111.2 C 711.3,559 745.2,592.9 779,626.7 830.6,573.1 886.7,523.6 934.5,466.5 1018.4,357.3 1005.3,188.9 905.7,93.8 810.8,-5.7 642.5,-18.7 533.2,65.1 476.3,112.9 426.6,169.1 373,220.6 Z m 275.4,543 c -7.1,50.1 -14.2,100.3 -21.3,150.4 26.9,1.3 53.8,2.7 80.7,4 -9.4,-51.6 -18.8,-103.1 -28.2,-154.7 -10.4,0.1 -20.8,0.2 -31.2,0.3 z M 730,703.3 c -11.9,13.4 -23.9,26.9 -35.8,40.3 50,73.4 99.9,146.7 149.8,220 32.8,-32.8 65.5,-65.5 98.3,-98.3 -70.7,-54 -141.5,-108 -212.3,-162 z" /></g>
</svg>
